HIERARCHY
ROOT SpineBase
{
  OFFSET 0.000000 0.000000 0.000000
  CHANNELS 6 Xposition Yposition Zposition Zrotation Xrotation Yrotation
  JOINT SpineMid
  {
    OFFSET 0.000000 34.992109 0.000000
    CHANNELS 3 Zrotation Xrotation Yrotation
    JOINT SpineShoulder
    {
      OFFSET -0.282189 25.883916 -0.788988
      CHANNELS 3 Zrotation Xrotation Yrotation
      JOINT Neck
      {
        OFFSET -0.192007 8.578792 -0.636142
        CHANNELS 3 Zrotation Xrotation Yrotation
        JOINT Head
        {
          OFFSET -2.450399 7.650709 2.095464
          CHANNELS 3 Zrotation Xrotation Yrotation
          End Site
          {
            OFFSET 0 0 0
          }
        }
      }
      JOINT ShoulderLeft
      {
        OFFSET -14.787333 -11.765861 -14.141807
        CHANNELS 3 Zrotation Xrotation Yrotation
        JOINT ElbowLeft
        {
          OFFSET -3.426163 -22.736892 1.621819
          CHANNELS 3 Zrotation Xrotation Yrotation
          JOINT WristLeft
          {
            OFFSET -2.195156 -21.065223 6.811731
            CHANNELS 3 Zrotation Xrotation Yrotation
            JOINT HandLeft
            {
              OFFSET 2.016040 -3.792131 2.098381
              CHANNELS 3 Zrotation Xrotation Yrotation
              JOINT HandTipLeft
              {
                OFFSET 1.431932 -8.696574 1.939710
                CHANNELS 3 Zrotation Xrotation Yrotation
                End Site
                {
                  OFFSET 0 0 0
                }
              }
              JOINT ThumbLeft
              {
                OFFSET 1.765152 -0.846733 -5.347438
                CHANNELS 3 Zrotation Xrotation Yrotation
                End Site
                {
                  OFFSET 0 0 0
                }
              }
            }
          }
        }
      }
      JOINT ShoulderRight
      {
        OFFSET 10.918488 -6.138257 -5.459001
        CHANNELS 3 Zrotation Xrotation Yrotation
        JOINT ElbowRight
        {
          OFFSET 11.336940 -22.390083 8.233471
          CHANNELS 3 Zrotation Xrotation Yrotation
          JOINT WristRight
          {
            OFFSET -13.004037 -18.254700 -6.226370
            CHANNELS 3 Zrotation Xrotation Yrotation
            JOINT HandRight
            {
              OFFSET -0.900429 -4.234799 -7.516643
              CHANNELS 3 Zrotation Xrotation Yrotation
              JOINT HandTipRight
              {
                OFFSET -5.000616 -6.596171 -1.020352
                CHANNELS 3 Zrotation Xrotation Yrotation
                End Site
                {
                  OFFSET 0 0 0
                }
              }
              JOINT ThumbRight
              {
                OFFSET 1.059942 -5.350585 0.618446
                CHANNELS 3 Zrotation Xrotation Yrotation
                End Site
                {
                  OFFSET 0 0 0
                }
              }
            }
          }
        }
      }
    }
  }
  JOINT HipLeft
  {
    OFFSET -7.224880 1.135217 -5.111082
    CHANNELS 3 Zrotation Xrotation Yrotation
    JOINT KneeLeft
    {
      OFFSET 0.920089 -28.466875 0.305385
      CHANNELS 3 Zrotation Xrotation Yrotation
      JOINT AnkleLeft
      {
        OFFSET 1.224634 -34.954257 -1.827935
        CHANNELS 3 Zrotation Xrotation Yrotation
        JOINT FootLeft
        {
          OFFSET 3.088359 -4.156262 3.658401
          CHANNELS 3 Zrotation Xrotation Yrotation
          End Site
          {
            OFFSET 0 0 0
          }
        }
      }
    }
  }
  JOINT HipRight
  {
    OFFSET 5.391322 1.063952 -2.179919
    CHANNELS 3 Zrotation Xrotation Yrotation
    JOINT KneeRight
    {
      OFFSET 4.646522 -29.139216 4.721653
      CHANNELS 3 Zrotation Xrotation Yrotation
      JOINT AnkleRight
      {
        OFFSET 3.034847 -34.518488 5.613730
        CHANNELS 3 Zrotation Xrotation Yrotation
        JOINT FootRight
        {
          OFFSET 0.489306 -4.422669 -8.862494
          CHANNELS 3 Zrotation Xrotation Yrotation
          End Site
          {
            OFFSET 0 0 0
          }
        }
      }
    }
  }
}
MOTION
Frames: 16
Frame Time: 0.033333
72.688768 68.107100 301.246987 0.346129 -0.089884 -16.811083 -0.357333 -0.014065 16.811310 -0.000000 0.000000 0.000000 3.050032 4.815483 0.567989 0.000000 0.000000 0.000000 -0.204365 -0.787038 0.102540 0.205793 0.786666 -0.105356 2.804791 -4.708265 -0.807918 -1.898174 4.245028 1.109142 0.000000 0.000000 0.000000 0.000000 0.000000 0.000000 3.412491 -1.941896 0.322861 -3.403485 1.957650 -0.206843 1.119120 3.734865 -2.667998 13.049809 -8.614986 6.519362 0.000000 0.000000 0.000000 0.000000 0.000000 0.000000 0.818340 -0.714296 16.796034 -0.923328 1.009956 0.030888 25.525243 -8.750727 14.742439 0.000000 0.000000 0.000000 -2.603361 1.750657 16.953420 3.774063 0.444902 0.554866 2.838721 5.271500 -8.560868 0.000000 0.000000 0.000000
72.708468 68.128442 301.252031 0.369296 -0.086805 -16.401334 -0.378779 -0.021004 16.401545 -0.000000 0.000000 0.000000 3.411483 5.469454 0.640950 0.000000 0.000000 0.000000 -0.177402 -0.966115 0.131325 0.179641 0.965701 -0.134335 3.785901 -5.334344 -0.542349 0.026657 5.282819 1.387693 0.000000 0.000000 0.000000 0.000000 0.000000 0.000000 2.925028 -1.437626 0.377963 -2.916423 1.455014 -0.304215 1.087714 2.556383 -2.407767 5.552822 -6.545203 5.229956 0.000000 0.000000 0.000000 0.000000 0.000000 0.000000 0.843675 -0.636020 16.389050 -0.999390 0.934817 0.027657 24.743011 -8.447700 14.331895 0.000000 0.000000 0.000000 -2.271901 1.612381 16.544093 3.091688 0.827660 0.470082 3.053339 5.532376 -8.102538 0.000000 0.000000 0.000000
72.757483 68.196094 301.249129 0.428038 -0.102705 -16.177070 -0.439704 -0.020617 16.177375 -0.000000 0.000000 0.000000 3.472004 6.545619 0.925397 0.000000 0.000000 0.000000 -0.041721 -1.316056 0.194696 0.046204 1.315906 -0.195706 4.620551 -5.357911 -0.072616 -1.789567 8.031292 1.252278 0.000000 0.000000 0.000000 0.000000 0.000000 0.000000 2.701027 -1.259955 0.379086 -2.693301 1.276396 -0.319374 1.424913 3.507427 -3.154986 8.711368 -7.847056 6.440134 0.000000 0.000000 0.000000 0.000000 0.000000 0.000000 0.752250 -0.582647 16.166075 -0.988459 0.871553 0.025093 23.903397 -8.180830 13.860565 0.000000 0.000000 0.000000 -1.752183 1.686283 16.389830 1.726418 1.098478 0.255497 5.059063 8.246110 -9.518301 0.000000 0.000000 0.000000
72.818370 68.314275 301.274793 0.495618 -0.100150 -16.301362 -0.503804 -0.042993 16.301606 -0.000000 0.000000 0.000000 3.055429 8.292202 1.557582 0.000000 0.000000 0.000000 0.090280 -1.096558 0.172449 -0.086995 1.096823 -0.170752 6.173501 -6.147429 0.453431 -4.800373 10.644555 1.058937 0.000000 0.000000 0.000000 0.000000 0.000000 0.000000 2.813473 -1.533738 0.290785 -2.806676 1.546148 -0.215239 1.352589 3.742389 -3.070025 13.374400 -8.026688 6.396331 0.000000 0.000000 0.000000 0.000000 0.000000 0.000000 0.691210 -0.648545 16.289676 -0.977319 0.916305 0.026957 23.926549 -8.316524 13.807147 0.000000 0.000000 0.000000 -2.267525 1.721826 16.483340 2.769977 0.901434 0.414440 3.359096 6.016521 -8.206022 0.000000 0.000000 0.000000
72.858593 68.369719 301.308018 0.526054 -0.082513 -16.671063 -0.527614 -0.071869 16.671110 -0.000000 0.000000 0.000000 2.317998 10.294616 2.387566 0.000000 0.000000 0.000000 -0.000000 0.000000 0.000000 -0.000000 0.000000 0.000000 7.207844 -7.412612 0.481545 -7.101330 14.485032 1.650740 0.000000 0.000000 0.000000 0.000000 0.000000 0.000000 3.014759 -1.935466 0.176269 -3.010522 1.942053 -0.074295 1.795992 2.122374 -3.566139 11.768195 -7.307553 7.432883 0.000000 0.000000 0.000000 0.000000 0.000000 0.000000 0.785467 -0.781628 16.658054 -1.054707 1.056192 0.032558 24.528418 -13.635617 11.583820 0.000000 0.000000 0.000000 -2.411476 1.699686 16.845468 3.266078 1.180671 0.519572 2.720631 5.735559 -7.852715 0.000000 0.000000 0.000000
72.912140 68.525207 301.355834 0.588066 -0.057419 -17.152778 -0.578844 -0.118568 17.152474 -0.000000 0.000000 0.000000 1.081376 11.858440 3.298451 0.000000 0.000000 0.000000 -0.000000 0.000000 0.000000 -0.000000 0.000000 0.000000 8.387834 -7.074776 1.307415 -8.839119 20.810434 2.050021 0.000000 0.000000 0.000000 0.000000 0.000000 0.000000 3.297197 -2.609982 -0.033062 -3.302115 2.603754 0.183258 3.243267 3.753550 -6.326295 16.266701 -8.762380 11.143567 0.000000 0.000000 0.000000 0.000000 0.000000 0.000000 0.722041 -0.943134 17.137393 -1.495939 1.942644 0.103733 25.626191 -13.057363 12.913670 0.000000 0.000000 0.000000 -2.725123 1.654731 17.305633 4.217769 1.637743 0.712726 1.620803 5.257903 -7.329527 0.000000 0.000000 0.000000
72.967615 68.762600 301.400220 0.660396 -0.040261 -17.453590 -0.642068 -0.159666 17.452928 -0.000000 0.000000 0.000000 0.089916 13.063046 4.037820 0.000000 0.000000 0.000000 0.171654 1.546913 -0.223453 -0.165681 -1.547564 0.218898 9.742701 -6.516944 2.313725 -11.439588 19.032892 0.833854 0.000000 0.000000 0.000000 0.000000 0.000000 0.000000 3.256986 -2.459311 0.022015 -3.259039 2.456588 0.117811 3.076512 4.385909 -6.125321 16.668448 -9.558681 11.321606 0.000000 0.000000 0.000000 0.000000 0.000000 0.000000 0.569687 -1.088890 17.435151 -1.394232 2.244786 0.118113 26.501539 -6.278045 17.166075 0.000000 0.000000 0.000000 -2.601662 1.771188 17.659945 3.495146 1.447844 0.569848 1.750962 5.438061 -6.613536 0.000000 0.000000 0.000000
72.999202 68.999351 301.401737 0.725440 -0.006196 -17.120322 -0.695122 -0.207628 17.119102 -0.000000 0.000000 0.000000 -0.561776 14.511820 4.737737 0.000000 0.000000 0.000000 0.524600 2.689598 -0.381158 -0.507263 -2.692919 0.356920 9.087323 -4.665022 2.749791 -10.621793 13.751066 -0.700961 0.000000 0.000000 0.000000 0.000000 0.000000 0.000000 3.714801 -2.313746 0.263578 -3.707179 2.325948 -0.113252 1.028639 2.575107 -2.308584 22.933604 -11.252173 10.127061 0.000000 0.000000 0.000000 0.000000 0.000000 0.000000 0.401171 -1.113296 17.101718 -1.291015 2.267974 0.117899 23.960445 10.147315 25.241142 0.000000 0.000000 0.000000 -2.314033 1.908616 17.393214 2.345324 0.786953 0.313921 1.877147 6.157972 -5.298367 0.000000 0.000000 0.000000
73.034997 69.160917 301.399654 0.823794 0.044174 -16.049041 -0.779481 -0.270187 16.046886 -0.000000 0.000000 0.000000 -0.044886 15.623304 4.868228 0.000000 0.000000 0.000000 0.759873 3.605017 -0.514788 -0.726193 -2.584018 0.364277 9.085460 -5.352312 3.143762 -11.513719 9.351739 -1.715682 0.000000 0.000000 0.000000 0.000000 0.000000 0.000000 3.338724 -1.832300 0.346503 -3.329320 1.849346 -0.239348 -1.103645 0.097615 1.932121 17.356552 -11.254264 6.145277 0.000000 0.000000 0.000000 0.000000 0.000000 0.000000 0.103317 -1.033985 16.032161 -1.099660 2.111223 0.106482 9.097884 36.674852 42.872362 0.000000 0.000000 0.000000 -1.999419 1.690936 16.315290 1.302523 0.684750 0.134350 2.009202 6.651867 -4.075253 0.000000 0.000000 0.000000
73.124640 69.263584 301.423755 0.945558 0.085848 -14.355521 -0.894760 -0.317586 14.352333 -0.000000 0.000000 0.000000 0.340507 16.402036 4.944086 0.000000 0.000000 0.000000 1.014576 5.326373 -0.781643 -0.946030 -5.338938 0.690339 11.450813 -4.300019 4.189360 -18.355203 6.262494 -4.045454 0.000000 0.000000 0.000000 0.000000 0.000000 0.000000 2.518719 -1.206375 0.336963 -2.512151 1.220000 -0.283691 -3.252539 -0.575364 5.892473 11.417226 -11.089197 1.938182 0.000000 0.000000 0.000000 0.000000 0.000000 0.000000 -0.894760 -0.317586 14.352333 -0.373754 1.126220 0.062653 -29.631918 53.437128 77.556564 0.000000 0.000000 0.000000 -1.621318 1.268011 14.582329 0.116027 0.825534 -0.028795 4.306572 7.525841 -6.341652 0.000000 0.000000 0.000000
73.256141 69.364777 301.501198 1.088509 0.156185 -12.712554 -1.027477 -0.391854 12.707557 0.758761 0.316892 0.061263 -1.593896 15.835564 5.290237 0.000000 0.000000 0.000000 0.075729 6.659211 -1.110911 -0.690588 -8.919662 1.152401 16.126033 -1.370736 6.373571 -25.608067 2.331298 -8.086269 0.000000 0.000000 0.000000 0.000000 0.000000 0.000000 1.211878 -0.961594 0.351401 -1.967094 0.657047 -0.383598 -4.070189 -0.338744 7.260977 12.905678 -11.122640 0.020973 0.000000 0.000000 0.000000 0.000000 0.000000 0.000000 -1.027477 -0.391854 12.707557 -0.247329 1.107248 0.054095 -60.424680 52.797438 103.136983 0.000000 0.000000 0.000000 -1.333970 0.795718 12.898349 -1.000646 0.993397 -0.165948 4.177165 8.174050 -4.484759 0.000000 0.000000 0.000000
73.392049 69.355559 301.576716 1.170785 0.139735 -10.756813 -1.124151 -0.355754 10.751895 0.844301 0.306757 0.067216 -3.467420 15.498925 5.907432 0.000000 0.000000 0.000000 0.617892 8.463811 -1.406603 -1.234741 -12.111937 1.468103 18.269385 0.661899 7.110508 -29.606456 1.408077 -10.027465 0.000000 0.000000 0.000000 0.000000 0.000000 0.000000 0.453982 -0.573362 0.278915 -1.297333 0.273799 -0.337582 -4.981783 -0.552804 8.917405 7.251237 -8.164053 -3.434126 0.000000 0.000000 0.000000 0.000000 0.000000 0.000000 -1.124151 -0.355754 10.751895 -0.105240 1.139080 0.046436 -76.815393 48.745351 113.765455 0.000000 0.000000 0.000000 -1.124151 -0.355754 10.751895 -2.064006 1.905380 -0.134420 1.902544 9.609201 1.486558 0.000000 0.000000 0.000000
73.527327 69.364174 301.629613 1.179304 0.110546 -9.700257 -1.143831 -0.307636 9.696048 -0.000000 0.000000 0.000000 -4.498750 15.028556 6.507314 0.000000 0.000000 0.000000 2.650863 11.277907 -1.796382 -2.305646 -15.518063 1.722214 16.661295 2.326587 6.361372 -30.023005 0.128398 -10.590275 0.000000 0.000000 0.000000 0.000000 0.000000 0.000000 -0.000000 0.000000 0.000000 -0.000000 0.000000 0.000000 -5.855419 -0.352586 10.374441 6.593499 -8.940867 -4.446165 0.000000 0.000000 0.000000 0.000000 0.000000 0.000000 -2.438312 -0.090925 9.692198 1.314962 0.776635 0.042148 -85.102957 45.735536 117.268826 0.000000 0.000000 0.000000 -1.143831 -0.307636 9.696048 -2.526216 1.810280 -0.212773 -1.508069 7.115696 8.266536 0.000000 0.000000 0.000000
73.673382 69.390819 301.518427 1.050776 0.118498 -9.079208 -1.018923 -0.282797 9.075607 -0.000000 0.000000 0.000000 -5.540580 14.530176 6.765079 0.000000 0.000000 0.000000 4.133407 15.246974 -2.608339 -3.521314 -19.894871 2.027457 12.536563 2.366548 4.296539 -26.852213 -0.880915 -8.973807 0.000000 0.000000 0.000000 0.000000 0.000000 0.000000 -0.000000 0.000000 0.000000 3.252074 -1.702539 0.155666 -9.235554 3.419283 10.068860 2.678220 -9.411549 -4.396221 0.000000 0.000000 0.000000 0.000000 0.000000 0.000000 -2.705650 -0.411066 9.051801 1.935891 1.178582 0.046406 -88.968627 44.221663 117.697504 0.000000 0.000000 0.000000 -0.479467 -1.229608 8.982365 -3.066854 3.087800 -0.053964 -5.801057 -4.353933 17.302364 0.000000 0.000000 0.000000
73.809290 69.407369 301.284930 0.806154 0.178480 -8.908858 -0.768799 -0.301150 8.905582 -0.000000 0.000000 0.000000 -6.036977 14.176626 6.844446 0.000000 0.000000 0.000000 6.088242 18.591593 -3.456167 -5.231884 -23.161461 2.010970 6.746906 1.824666 1.511478 -21.655656 -0.277399 -5.812732 0.000000 0.000000 0.000000 0.000000 0.000000 0.000000 5.133975 -3.381456 0.317506 -7.902848 5.868568 -0.590849 -4.742811 0.723807 12.578893 0.152530 -11.106529 -6.069488 0.000000 0.000000 0.000000 0.000000 0.000000 0.000000 -2.694888 -1.087594 8.845010 2.400576 1.707593 0.044817 -89.388532 44.315105 116.073288 0.000000 0.000000 0.000000 -0.166595 -2.238873 8.647397 -2.737021 4.666285 0.260312 -8.693403 -11.693733 23.812347 0.000000 0.000000 0.000000
73.857974 69.611600 300.977234 0.407559 0.195629 -8.902194 -0.372380 -0.256336 8.900666 -0.000000 0.000000 0.000000 -6.515882 13.969693 6.966807 0.000000 0.000000 0.000000 7.502140 21.674686 -4.307348 -6.368342 -25.640230 1.964952 1.167869 2.265272 -0.531382 -16.418102 0.870289 -3.142421 0.000000 0.000000 0.000000 0.000000 0.000000 0.000000 4.250695 -3.310626 0.009670 -9.403052 6.834098 -0.081911 -2.789237 -0.065724 13.047999 6.259544 -11.825098 -7.123406 0.000000 0.000000 0.000000 0.000000 0.000000 0.000000 -2.306555 -1.636739 8.811464 2.599518 2.068219 0.034575 -93.422339 42.878314 116.231132 0.000000 0.000000 0.000000 0.116163 -2.953696 8.489479 -1.782771 5.982014 0.571669 -10.367658 -28.062062 31.626991 0.000000 0.000000 0.000000
